<svg width="45" height="13" fill="none" xmlns="http://www.w3.org/2000/svg"><path d="M7.814 2.94H6.762a.292.292 0 00-.292.293V9.78c0 .161.13.292.292.292h1.052c.162 0 .293-.13.293-.292V3.233a.292.292 0 00-.293-.292zM5.271 8.438H2.437V3.233a.296.296 0 00-.295-.292H1.09a.294.294 0 00-.292.292v6.55c0 .16.13.292.292.292h4.181c.16 0 .293-.13.293-.293V8.73c0-.16-.13-.292-.293-.292zM20.907 4.58c.16 0 .293-.13.293-.293V3.233a.294.294 0 00-.293-.292h-4.18a.293.293 0 00-.293.292v6.55c0 .16.13.292.292.292h4.181c.16 0 .293-.13.293-.293V8.73a.294.294 0 00-.293-.292h-2.834v-1.11h2.834c.16 0 .293-.13.293-.293V5.983a.294.294 0 00-.293-.292h-2.834V4.58h2.834zm-5.873-1.639h-1.052c-.16 0-.292.13-.292.292v3.79l-2.755-3.938c-.077-.11-.193-.144-.323-.144-.016-.002-.033 0-.05 0h-1.05a.293.293 0 00-.293.292v6.55c0 .16.13.292.292.292h1.052c.16 0 .292-.13.292-.293V5.825l2.873 4.106a.25.25 0 00.033.04c.05.059.12.097.203.104h1.072c.16 0 .293-.13.293-.293V3.233a.294.294 0 00-.293-.292h-.002z" fill="#000"/><path d="M43.284.204h-18.61a.73.73 0 00-.732.731v11.13c0 .404.328.731.731.731h18.61a.73.73 0 00.732-.73V.935a.73.73 0 00-.731-.732z" fill="#08BF5B"/><path d="M31.18 5.114c0 1.107-.89 1.997-2.037 1.997h-.873v1.633a.196.196 0 01-.195.196h-.94a.196.196 0 01-.195-.196v-5.43c0-.107.088-.195.195-.195h2.008c1.148 0 2.038.89 2.038 1.997v-.002zm-1.33 0c0-.424-.299-.748-.707-.748h-.873v1.496h.873c.408 0 .707-.325.707-.748zm6.27-.23v3.953a.103.103 0 01-.103.103h-1.04a.103.103 0 01-.103-.103V8.55c-.276.316-.682.507-1.239.507-1.09 0-1.988-.956-1.988-2.194s.898-2.195 1.988-2.195c.557 0 .965.191 1.239.507v-.288c0-.056.045-.103.103-.103h1.04c.056 0 .103.045.103.103v-.002zM34.874 6.86c0-.624-.415-1.015-.99-1.015-.573 0-.988.391-.988 1.015 0 .623.415 1.014.989 1.014.574 0 .989-.391.989-1.014zm5.398-1.972L39.316 7.3l-.991-2.414a.173.173 0 00-.16-.107h-1.061a.103.103 0 00-.095.142l1.651 4.026-.602 1.515a.104.104 0 00.097.142h1.062a.17.17 0 00.159-.107L41.59 4.92a.104.104 0 00-.097-.142h-1.062a.17.17 0 00-.159.107v.002z" fill="#fff"/></svg>