<svg width="851" height="256" fill="none" xmlns="http://www.w3.org/2000/svg"><g clip-path="url(#clip0)"><path d="M790.4 0H60.03c-2.31 0-4.59 0-6.89.01-1.93.01-3.84.05-5.79.08-4.19.1-8.43.36-12.62 1.11-4.21.74-8.13 2-11.97 3.95-3.76 1.93-7.2 4.44-10.18 7.42a39.463 39.463 0 00-7.42 10.21c-1.96 3.83-3.2 7.77-3.93 11.98C.47 38.93.21 43.15.1 47.36c-.06 1.93-.06 3.87-.1 5.8v148.81c.03 1.95.04 3.85.1 5.8.11 4.22.37 8.44 1.13 12.6.73 4.22 1.98 8.17 3.93 11.99 1.91 3.75 4.41 7.21 7.42 10.16 2.98 3.01 6.42 5.51 10.19 7.42 3.84 1.97 7.75 3.21 11.97 3.97 4.18.75 8.43 1 12.62 1.11 1.95.04 3.86.07 5.79.07 2.3.01 4.58.01 6.89.01H790.4c2.26 0 4.56 0 6.82-.01 1.92 0 3.89-.02 5.8-.07 4.22-.12 8.45-.36 12.59-1.11 4.22-.76 8.14-2 12.01-3.97 3.76-1.91 7.21-4.41 10.18-7.42 3-2.96 5.5-6.41 7.44-10.16 1.93-3.82 3.19-7.77 3.9-11.99.77-4.17 1.02-8.39 1.17-12.6.02-1.96.02-3.85.02-5.8.05-2.29.05-4.56.05-6.89V60.04c0-2.31 0-4.59-.05-6.87 0-1.93 0-3.87-.02-5.8-.15-4.22-.39-8.44-1.17-12.6-.71-4.22-1.97-8.15-3.9-11.98a40.687 40.687 0 00-17.62-17.63c-3.87-1.95-7.8-3.21-12.01-3.95C811.47.46 807.24.2 803.02.1c-1.92-.03-3.89-.07-5.8-.08C794.96 0 792.66 0 790.4 0z" fill="#C0C1C1"/><path d="M53.17 249.61c-1.92 0-3.79-.02-5.69-.07-3.52-.1-7.69-.3-11.77-1.03-3.84-.7-7.26-1.83-10.43-3.45a34.43 34.43 0 01-8.8-6.4 33.42 33.42 0 01-6.42-8.79c-1.63-3.18-2.75-6.59-3.42-10.43-.77-4.24-.97-8.53-1.05-11.8-.04-1.33-.09-5.75-.09-5.75V53.16s.06-4.35.09-5.63c.08-3.3.28-7.59 1.04-11.79.67-3.86 1.79-7.27 3.42-10.46 1.67-3.3 3.82-6.26 6.39-8.8a35.13 35.13 0 018.83-6.44c3.23-1.64 6.64-2.76 10.41-3.42 4.24-.76 8.54-.95 11.81-1.03l5.68-.08h744.02l5.75.08c3.23.08 7.53.27 11.7 1.02 3.79.66 7.22 1.79 10.52 3.45a34.76 34.76 0 018.76 6.39c2.58 2.56 4.73 5.53 6.44 8.84 1.62 3.22 2.73 6.63 3.37 10.38.73 3.97.96 8.05 1.09 11.88.02 1.78.02 3.7.02 5.6.05 2.36.05 4.61.05 6.87v135.05c0 2.29 0 4.52-.05 6.77 0 2.05 0 3.92-.02 5.85-.13 3.71-.36 7.78-1.08 11.67-.65 3.86-1.76 7.27-3.4 10.51-1.7 3.27-3.85 6.23-6.39 8.72-2.6 2.63-5.55 4.78-8.81 6.44-3.27 1.66-6.6 2.76-10.5 3.46-4.03.73-8.21.93-11.77 1.03-1.84.04-3.77.07-5.65.07l-6.82.01-737.23.01z" fill="#000"/><path d="M315.4 172.42h-29.51l-7.22 19.74H265.7l28.9-73.73h12.26l29.56 73.73h-13.64l-7.38-19.74zm-25.8-10.02h22.03l-7.89-21.12c-1.08-2.92-2.15-6.14-3.21-9.67-.95 3.12-1.98 6.31-3.1 9.57l-7.83 21.22zm52.67-11.7c0-4.07-.14-8.55-.41-13.43h11.8c.44 2.27.74 4.6.92 6.97 4.88-5.33 10.48-7.99 16.79-7.99 3.66 0 7.06.92 10.17 2.77 3.12 1.85 5.64 4.77 7.56 8.75 1.92 3.99 2.88 9.05 2.88 15.19 0 6.41-1.1 11.89-3.29 16.44-2.18 4.55-5.25 7.99-9.18 10.33-3.93 2.34-8.48 3.51-13.64 3.51-3.73 0-7.41-.63-11.04-1.88v22.69l-12.57 1.07V150.7h.01zm33.04 28.06c2.56-3.44 3.84-8.47 3.84-15.09 0-6.14-1.06-10.59-3.18-13.36-2.12-2.76-4.94-4.15-8.47-4.15-2.44 0-4.7.58-6.77 1.73-2.07 1.15-4.04 2.7-5.9 4.63v29.41c1.25.61 2.71 1.09 4.37 1.45 1.66.36 3.31.53 4.94.53 4.89.01 8.61-1.71 11.17-5.15zm24.71-28.06c0-4.07-.14-8.55-.41-13.43h11.8c.44 2.27.74 4.6.92 6.97 4.88-5.33 10.48-7.99 16.79-7.99 3.66 0 7.06.92 10.17 2.77 3.12 1.85 5.64 4.77 7.56 8.75 1.92 3.99 2.88 9.05 2.88 15.19 0 6.41-1.1 11.89-3.29 16.44-2.18 4.55-5.25 7.99-9.18 10.33-3.93 2.34-8.48 3.51-13.64 3.51-3.73 0-7.41-.63-11.04-1.88v22.69l-12.57 1.07V150.7h.01zm33.05 28.06c2.56-3.44 3.84-8.47 3.84-15.09 0-6.14-1.06-10.59-3.18-13.36-2.12-2.76-4.94-4.15-8.47-4.15-2.44 0-4.7.58-6.77 1.73-2.07 1.15-4.04 2.7-5.9 4.63v29.41c1.25.61 2.71 1.09 4.37 1.45 1.66.36 3.31.53 4.94.53 4.89.01 8.61-1.71 11.17-5.15zm40.37 9.92c-5.43-3-9.6-7.3-12.52-12.9-2.92-5.6-4.37-12.21-4.37-19.84 0-8.28 1.68-15.31 5.03-21.09 3.36-5.78 7.93-10.12 13.72-13.02 5.78-2.9 12.27-4.35 19.46-4.35 4.24 0 8.28.47 12.13 1.4 3.85.93 7.44 2.21 10.76 3.84l-3.21 9.67c-6.68-3.19-13.06-4.78-19.13-4.78-5.12 0-9.61 1.09-13.46 3.28-3.85 2.19-6.84 5.4-8.98 9.64-2.13 4.24-3.21 9.36-3.21 15.37 0 5.26.82 9.92 2.47 13.99 1.65 4.07 4.24 7.29 7.78 9.67s8.01 3.56 13.41 3.56c2.44 0 4.89-.2 7.33-.61 2.44-.41 4.73-1 6.87-1.78v-14.91h-17.04v-9.77h29.26v31.04a65.341 65.341 0 01-13.25 4.53c-4.63 1.05-9.23 1.58-13.82 1.58-7.39-.02-13.8-1.52-19.23-4.52zm91.59 3.49c-.44-2.14-.73-4.56-.86-7.28-1.93 2.31-4.45 4.27-7.56 5.88-3.1 1.61-6.6 2.42-10.51 2.42-3.16 0-6.03-.62-8.63-1.86-2.59-1.24-4.65-3.1-6.18-5.6-1.53-2.49-2.29-5.54-2.29-9.13 0-5.33 1.92-9.57 5.75-12.75 3.83-3.17 10.22-4.76 19.18-4.76 3.36 0 6.68.24 9.97.71v-1.07c0-4.85-1.03-8.27-3.11-10.25-2.07-1.98-5.03-2.98-8.9-2.98-2.68 0-5.55.39-8.6 1.17-3.05.78-5.73 1.71-8.04 2.8l-1.98-9.16c2.24-1.02 5.19-1.95 8.86-2.8 3.66-.85 7.53-1.27 11.6-1.27 4.75 0 8.78.72 12.11 2.16 3.32 1.44 5.92 3.92 7.78 7.43 1.87 3.51 2.8 8.24 2.8 14.17v21.83c0 2.27.13 5.72.41 10.33h-11.8v.01zm-7.53-10.18c2.61-1.25 4.75-2.81 6.41-4.68v-10.18c-3.43-.37-6.22-.56-8.4-.56-5.19 0-8.78.84-10.76 2.52-1.98 1.68-2.98 3.94-2.98 6.79 0 2.71.72 4.73 2.16 6.03 1.44 1.31 3.4 1.96 5.88 1.96 2.52 0 5.08-.63 7.69-1.88zm29.93-3v-64.87l12.51-1.02v63.65c0 2.34.4 3.99 1.2 4.96.8.97 2.06 1.45 3.79 1.45.78 0 1.88-.19 3.31-.56l1.48 9.01c-1.19.48-2.64.86-4.35 1.14-1.71.29-3.33.43-4.86.43-8.73 0-13.08-4.73-13.08-14.19zm31.29 0v-64.87l12.51-1.02v63.65c0 2.34.4 3.99 1.2 4.96.8.97 2.06 1.45 3.79 1.45.78 0 1.88-.19 3.31-.56l1.48 9.01c-1.19.48-2.64.86-4.35 1.14-1.71.29-3.33.43-4.86.43-8.72 0-13.08-4.73-13.08-14.19zm74.39-12.67h-35.92c.58 11.5 6.06 17.25 16.44 17.25 2.58 0 5.21-.31 7.91-.94 2.7-.63 5.28-1.47 7.76-2.52l2.75 8.6c-6.14 2.98-13.04 4.48-20.71 4.48-5.83 0-10.75-1.1-14.76-3.31-4-2.21-7.01-5.38-9.03-9.52-2.02-4.14-3.03-9.12-3.03-14.96 0-6.07 1.07-11.29 3.21-15.67 2.14-4.38 5.11-7.72 8.93-10.02 3.81-2.31 8.22-3.46 13.2-3.46 5.19 0 9.53 1.21 13 3.64 3.47 2.43 6.05 5.66 7.73 9.69 1.68 4.04 2.52 8.5 2.52 13.38v3.36zm-12.26-7.99c-.23-4.38-1.34-7.66-3.31-9.85-1.97-2.19-4.6-3.28-7.89-3.28-3.19 0-5.84 1.1-7.96 3.31s-3.5 5.48-4.15 9.82h23.31zm22.39-7.28c0-3.02-.14-7.62-.41-13.79h11.75c.21 1.53.4 3.35.59 5.47.18 2.12.31 3.84.38 5.16 1.46-2.41 2.89-4.43 4.3-6.08 1.41-1.65 3.06-2.99 4.94-4.02 1.88-1.04 4.03-1.55 6.43-1.55 1.93 0 3.6.2 4.99.61l-1.58 10.89c-1.22-.37-2.58-.56-4.07-.56-2.95 0-5.53.76-7.73 2.26-2.2 1.5-4.56 3.99-7.07 7.45v35.26h-12.52v-41.1zm40.51 63.58c-1.83-.32-3.34-.69-4.53-1.09l2.29-9.16c.85.24 1.92.46 3.21.69 1.29.22 2.51.33 3.66.33 5.56 0 9.73-3.58 12.52-10.74l.81-2.03-20.25-55.36h13.48l10.18 30.94c1.66 5.29 2.73 9.35 3.21 12.16.95-3.97 2.07-7.94 3.36-11.91l10.33-31.19h12.67l-20.2 55.61c-1.9 5.26-3.95 9.5-6.16 12.72-2.21 3.22-4.81 5.61-7.81 7.17-3.01 1.56-6.63 2.34-10.86 2.34-2.12 0-4.08-.16-5.91-.48zM265.62 46.72h22.66l-.64 5.47h-15.39v10.6h14.51v5.13h-14.51v11.74h16.21l-.56 5.53h-22.29V46.72h.01zm38.29 18.84l-11.96-18.84h7.55l8.1 13.84 8.53-13.84h7.34l-11.85 18.6 12.83 19.87h-7.65l-9.17-15.14-9.33 15.14h-7.33l12.94-19.63zm25.43-18.84h10.36c4.87 0 8.6.99 11.18 2.98 2.59 1.98 3.88 4.85 3.88 8.61 0 2.55-.58 4.78-1.74 6.68-1.16 1.9-2.78 3.36-4.85 4.38s-4.46 1.53-7.15 1.53c-1.47 0-3.15-.18-5.05-.53V85.2h-6.64V46.72h.01zM346 63.9c1.42-1.28 2.13-3.1 2.13-5.43 0-2.37-.72-4.08-2.16-5.13-1.44-1.04-3.57-1.57-6.37-1.57h-3.61v13.66c1.67.27 2.94.4 3.83.4 2.7 0 4.76-.65 6.18-1.93zm15.33-17.18h6.64v32.79h15.92l-.56 5.69h-22V46.72zm32.65 36.59c-2.82-1.61-4.97-3.88-6.45-6.79-1.49-2.91-2.23-6.3-2.23-10.16 0-4.06.8-7.6 2.38-10.64 1.58-3.04 3.87-5.38 6.86-7.04 2.98-1.66 6.5-2.48 10.56-2.48 3.88 0 7.22.8 10.02 2.4 2.8 1.6 4.93 3.86 6.4 6.76 1.47 2.91 2.21 6.27 2.21 10.1 0 4.13-.8 7.72-2.4 10.76-1.6 3.05-3.89 5.39-6.86 7.04-2.97 1.65-6.45 2.47-10.45 2.47-3.88 0-7.22-.81-10.04-2.42zm17.22-4.72c1.86-1.25 3.25-2.97 4.17-5.15.92-2.19 1.38-4.69 1.38-7.51 0-2.76-.41-5.23-1.22-7.39-.82-2.16-2.12-3.88-3.9-5.17-1.79-1.28-4.09-1.93-6.91-1.93-2.69 0-4.98.65-6.86 1.95-1.88 1.3-3.29 3.05-4.22 5.23-.94 2.19-1.41 4.6-1.41 7.24 0 2.78.44 5.27 1.33 7.47.88 2.2 2.24 3.93 4.06 5.21 1.82 1.27 4.08 1.91 6.78 1.91 2.67.02 4.94-.61 6.8-1.86zm19.93-31.87h12.04c4.39 0 7.72.88 9.98 2.63 2.26 1.75 3.39 4.26 3.39 7.52 0 2.04-.41 3.83-1.22 5.38-.82 1.55-1.82 2.81-3.03 3.79-1.21.98-2.44 1.7-3.72 2.18L460.4 85.2h-7.71l-10.02-15.25h-4.89V85.2h-6.64V46.72h-.01zm10.41 18.2c1.62 0 3.04-.31 4.28-.94 1.24-.63 2.2-1.51 2.9-2.66.69-1.14 1.03-2.47 1.03-3.97 0-1.93-.61-3.34-1.83-4.24-1.22-.89-3-1.34-5.34-1.34h-4.81v13.15h3.77zm24.11-18.2h22.66l-.64 5.47h-15.39v10.6h14.51v5.13h-14.51v11.74h16.21l-.56 5.53h-22.29V46.72h.01zm47.32 0h6.64v38.47h-6.64V46.72zm24.2 5.55h-11.93l.59-5.55h29.95l-.62 5.55h-11.34v32.92h-6.64V52.27h-.01zm47.43 31.04c-2.82-1.61-4.97-3.88-6.45-6.79-1.49-2.91-2.23-6.3-2.23-10.16 0-4.06.8-7.6 2.38-10.64 1.58-3.04 3.87-5.38 6.86-7.04 2.98-1.66 6.5-2.48 10.56-2.48 3.88 0 7.22.8 10.02 2.4 2.8 1.6 4.93 3.86 6.4 6.76 1.47 2.91 2.21 6.27 2.21 10.1 0 4.13-.8 7.72-2.4 10.76-1.6 3.05-3.89 5.39-6.86 7.04-2.97 1.65-6.45 2.47-10.45 2.47-3.89 0-7.23-.81-10.04-2.42zm17.21-4.72c1.86-1.25 3.25-2.97 4.17-5.15.92-2.19 1.38-4.69 1.38-7.51 0-2.76-.41-5.23-1.22-7.39-.82-2.16-2.12-3.88-3.9-5.17-1.79-1.28-4.09-1.93-6.91-1.93-2.69 0-4.98.65-6.86 1.95-1.88 1.3-3.29 3.05-4.22 5.23-.94 2.19-1.41 4.6-1.41 7.24 0 2.78.44 5.27 1.33 7.47.88 2.2 2.24 3.93 4.06 5.21 1.82 1.27 4.08 1.91 6.78 1.91 2.68.02 4.95-.61 6.8-1.86zm19.93-31.87h7.63l19.02 29.81c-.16-2.83-.24-5.45-.24-7.84V46.72h6.16v38.47h-7.39l-19.3-30.29c.19 3.44.29 6.48.29 9.14v21.15h-6.16V46.72h-.01z" fill="#fff"/><path fill-rule="evenodd" clip-rule="evenodd" d="M172.35 46.41h-70.97c-33.43 0-45.66 12.23-45.66 45.66v70.97c0 33.43 12.23 45.66 45.66 45.66h70.95c33.43 0 45.68-12.23 45.68-45.66V92.07c0-33.43-12.23-45.66-45.66-45.66z" fill="#C8102E"/><path d="M87.86 127.57h4.3v21.22h-4.3v-8.62h-9.72v8.62h-4.31v-21.22h4.31v8.56h9.72v-8.56zm24.25 12.15c0 3.45-1.71 5.29-4.82 5.29-3.13 0-4.85-1.9-4.85-5.44v-11.99h-4.31v12.13c0 5.97 3.32 9.39 9.1 9.39 5.84 0 9.18-3.49 9.18-9.57v-11.97h-4.3v12.16zm49.75 2.44l-4.82-14.59h-3.51l-4.82 14.59-4.69-14.58h-4.58l7.4 21.21h3.56l4.83-13.93 4.82 13.93h3.59l7.38-21.21h-4.46l-4.7 14.58zm16.88-2.5h7.83v-3.86h-7.83v-4.34h11.37v-3.87H174.5v21.19h16.02v-3.87h-11.78v-5.25zm16.91 9.1h4.25v-21.19h-4.25v21.19zm-70.73-4.4l-1.93 4.42h-4.4l9.35-21.21h3.8l9.31 21.21h-4.51l-1.91-4.42h-9.71zm1.6-3.82h6.51l-3.26-7.59-3.25 7.59zm10.35-39.98c-14.9 0-27.01-12.12-27.01-27.02h3.82c0 12.79 10.41 23.2 23.2 23.2s23.2-10.41 23.2-23.2h3.82c-.02 14.9-12.14 27.02-27.03 27.02z" fill="#fff"/></g><defs><clipPath id="clip0"><path fill="#fff" d="M0 0h850.39v255.12H0z"/></clipPath></defs></svg>