<svg width="161" height="32" fill="none" xmlns="http://www.w3.org/2000/svg"><g clip-path="url(#clip0)"><path d="M27.606 4.963C21.377-1.56 11.033-1.653 4.689 4.686-.456 9.828-1.366 17.596 1.955 23.67c.063.115.112.237.148.362.068.24.073.495.04.743l-.498 3.768c0 1.002.813 1.814 1.815 1.814l3.855-.502c.35-.046.705.02 1.016.189l.007.004c6.013 3.283 13.687 2.427 18.832-2.57 6.263-6.083 6.464-16.2.436-22.514z" fill="#0AB356"/></g><path fill-rule="evenodd" clip-rule="evenodd" d="M23.935 10.438l-7.699 7.698-7.698-7.698a1.802 1.802 0 010-2.567 1.802 1.802 0 012.567 0l5.131 5.131 5.131-5.131a1.802 1.802 0 012.568 0c.716.716.716 1.85 0 2.567zM22.652 24a1.801 1.801 0 01-1.815-1.815V14.86l3.63-3.63v10.955A1.8 1.8 0 0122.654 24zM11.63 22.185A1.801 1.801 0 019.816 24 1.8 1.8 0 018 22.185V11.23l3.63 3.63v7.325z" fill="#fff"/><path d="M44.416 26c-.619 0-1.11-.17-1.472-.512-.341-.341-.512-.821-.512-1.44V5.392c0-.619.17-1.099.512-1.44.363-.341.853-.512 1.472-.512h6.336c3.69 0 6.55.992 8.576 2.976 2.048 1.963 3.072 4.725 3.072 8.288 0 3.584-1.024 6.368-3.072 8.352C57.301 25.019 54.443 26 50.752 26h-6.336zm6.08-3.36c5.184 0 7.776-2.645 7.776-7.936 0-5.27-2.592-7.904-7.776-7.904H46.56v15.84h3.936zm28.093-.928c.363 0 .65.139.864.416.235.277.352.65.352 1.12 0 .661-.395 1.216-1.184 1.664a11.23 11.23 0 01-2.464.992 10.59 10.59 0 01-2.624.352c-2.517 0-4.512-.725-5.984-2.176-1.472-1.45-2.208-3.435-2.208-5.952 0-1.6.32-3.019.96-4.256.64-1.237 1.536-2.197 2.688-2.88 1.173-.683 2.496-1.024 3.968-1.024 1.408 0 2.635.31 3.68.928 1.045.619 1.856 1.493 2.432 2.624.576 1.13.864 2.464.864 4 0 .917-.405 1.376-1.216 1.376h-9.44c.128 1.472.544 2.56 1.248 3.264.704.683 1.728 1.024 3.072 1.024.683 0 1.28-.085 1.792-.256.533-.17 1.13-.405 1.792-.704.64-.341 1.11-.512 1.408-.512zm-5.536-8.928c-1.088 0-1.963.341-2.624 1.024-.64.683-1.024 1.664-1.152 2.944h7.232c-.043-1.301-.363-2.283-.96-2.944-.597-.683-1.43-1.024-2.496-1.024zm12.136 13.408c-.576 0-1.056-.16-1.44-.48-.363-.341-.544-.821-.544-1.44V5.168c0-.619.181-1.088.544-1.408.384-.32.864-.48 1.44-.48s1.056.16 1.44.48c.384.32.576.79.576 1.408v19.104c0 .619-.192 1.099-.576 1.44-.384.32-.864.48-1.44.48zm8.125 0c-.576 0-1.056-.16-1.44-.48-.363-.341-.544-.821-.544-1.44V11.92c0-.619.181-1.088.544-1.408.384-.32.864-.48 1.44-.48s1.056.16 1.44.48c.384.32.576.79.576 1.408v12.352c0 .619-.192 1.099-.576 1.44-.384.32-.864.48-1.44.48zm0-19.008c-.725 0-1.301-.192-1.728-.576-.427-.405-.64-.928-.64-1.568s.213-1.152.64-1.536c.427-.384 1.003-.576 1.728-.576.704 0 1.27.192 1.696.576.448.384.672.896.672 1.536s-.213 1.163-.64 1.568c-.427.384-1.003.576-1.728.576zm17.053 4c.171-.384.395-.672.672-.864.299-.192.619-.288.96-.288.491 0 .928.17 1.312.512.405.32.608.725.608 1.216 0 .256-.064.512-.192.768l-5.92 12.384a2.074 2.074 0 01-.832.928 2.13 2.13 0 01-1.152.32c-.405 0-.8-.107-1.184-.32a2.074 2.074 0 01-.832-.928l-5.952-12.384a1.624 1.624 0 01-.16-.736c0-.49.203-.907.608-1.248a2.246 2.246 0 011.44-.512c.768 0 1.333.373 1.696 1.12l4.48 9.888 4.448-9.856zm18.066 10.528c.362 0 .65.139.864.416.234.277.352.65.352 1.12 0 .661-.395 1.216-1.184 1.664a11.25 11.25 0 01-2.464.992 10.58 10.58 0 01-2.624.352c-2.518 0-4.512-.725-5.984-2.176-1.472-1.45-2.208-3.435-2.208-5.952 0-1.6.32-3.019.96-4.256.64-1.237 1.536-2.197 2.688-2.88 1.173-.683 2.496-1.024 3.968-1.024 1.408 0 2.634.31 3.68.928 1.045.619 1.856 1.493 2.432 2.624.576 1.13.864 2.464.864 4 0 .917-.406 1.376-1.216 1.376h-9.44c.128 1.472.544 2.56 1.248 3.264.704.683 1.728 1.024 3.072 1.024.682 0 1.28-.085 1.792-.256a17.11 17.11 0 001.792-.704c.64-.341 1.109-.512 1.408-.512zm-5.536-8.928c-1.088 0-1.963.341-2.624 1.024-.64.683-1.024 1.664-1.152 2.944h7.232c-.043-1.301-.363-2.283-.96-2.944-.598-.683-1.43-1.024-2.496-1.024zm18.888-2.752c.554-.043.992.075 1.312.352.32.277.48.693.48 1.248 0 .576-.139 1.003-.416 1.28-.278.277-.779.459-1.504.544l-.96.096c-1.259.128-2.187.555-2.784 1.28-.576.725-.864 1.632-.864 2.72v6.72c0 .619-.192 1.099-.576 1.44-.384.32-.864.48-1.44.48s-1.056-.16-1.44-.48c-.363-.341-.544-.821-.544-1.44V11.888c0-.597.181-1.056.544-1.376.384-.32.853-.48 1.408-.48.554 0 1.002.16 1.344.48.341.299.512.736.512 1.312v1.28c.405-.939 1.002-1.664 1.792-2.176.81-.512 1.706-.8 2.688-.864l.448-.032zm15.395 1.152c.17-.384.394-.661.672-.832a1.74 1.74 0 01.96-.288c.49 0 .928.17 1.312.512.405.32.608.725.608 1.216 0 .235-.064.48-.192.736l-8.736 18.304c-.363.725-.928 1.088-1.696 1.088-.491 0-.928-.16-1.312-.48a1.424 1.424 0 01-.544-1.152c0-.235.064-.501.192-.8l2.176-4.576-5.952-12.384a1.62 1.62 0 01-.16-.736c0-.49.202-.907.608-1.248a2.243 2.243 0 011.44-.512c.362 0 .693.096.992.288.298.17.533.448.704.832l4.48 9.888 4.448-9.856z" fill="#000"/><defs><clipPath id="clip0"><path fill="#fff" d="M0 0h32v32H0z"/></clipPath></defs></svg>